D:\school\WTK\thesis\model\3dpredictsim\Results\Batchsim_tmt_linear_v2\Pog_s1_tmt_bCst_d02_k1000_ig24_act_GRF.mot
nRows=20
nColumns=19

name D:\school\WTK\thesis\model\3dpredictsim\Results\Batchsim_tmt_linear_v2\Pog_s1_tmt_bCst_d02_k1000_ig24_act_GRF.mot
datacolumns 19
datarows 20
range 0.6490437121 0.8956803227
endheader
time 	ground_force_vx	ground_force_vy	ground_force_vz	ground_force_px	ground_force_py	ground_force_pz	1_ground_force_vx	1_ground_force_vy	1_ground_force_vz	1_ground_force_px	1_ground_force_py	1_ground_force_pz	ground_torque_x	ground_torque_y	ground_torque_z	1_ground_torque_x	1_ground_torque_y	1_ground_torque_z
        0.6490437121	       98.0444022869	      368.6398476797	       -3.4295870560	        0.4306930900	        0.0000000000	        0.0439781605	      -31.9997666462	       25.1203357871	       -3.0686011811	        1.0425928714	        0.0000000000	       -0.0531804052	        0.0000000000	        0.0000000000	        0.0000000000	        0.0000000000	        0.0000000000	        0.0000000000	
        0.6620245863	       38.8982173629	      233.2138630452	        7.2432982698	        0.4722140207	        0.0000000000	        0.0401281630	     -124.4047146113	      120.1251614557	      -12.5150472366	        1.0507694492	        0.0000000000	       -0.0523748547	        0.0000000000	        0.0000000000	        0.0000000000	        0.0000000000	        0.0000000000	        0.0000000000	
        0.6750054606	       22.6557935443	      188.4549336142	        9.6181675572	        0.4827157204	        0.0000000000	        0.0379700770	      -89.8200172202	      359.8730921727	        0.4093731360	        1.0563929582	        0.0000000000	       -0.0516912423	        0.0000000000	        0.0000000000	        0.0000000000	        0.0000000000	        0.0000000000	        0.0000000000	
        0.6879863348	       21.6633842568	      147.9685190675	       10.8504752723	        0.4832759981	        0.0000000000	        0.0381619581	     -106.5114098128	      605.2933062195	       10.1697582071	        1.0592874235	        0.0000000000	       -0.0517466455	        0.0000000000	        0.0000000000	        0.0000000000	        0.0000000000	        0.0000000000	        0.0000000000	
        0.7009672091	       15.3622893649	       97.8759245809	       12.1550158821	        0.4838060100	        0.0000000000	        0.0385215685	     -165.5856261409	      832.9311770713	       19.1460115239	        1.0684784884	        0.0000000000	       -0.0536288912	        0.0000000000	        0.0000000000	        0.0000000000	        0.0000000000	        0.0000000000	        0.0000000000	
        0.7139480833	        1.2841366831	       39.6946491098	        7.4885924803	        0.4835253320	        0.0000000000	        0.0387494356	     -206.8431426066	      968.1778428191	       23.1926392654	        1.0785915559	        0.0000000000	       -0.0558551098	        0.0000000000	        0.0000000000	        0.0000000000	        0.0000000000	        0.0000000000	        0.0000000000	
        0.7269289575	        0.2627830339	       -0.2605457246	       -0.0000955589	        0.0000000000	        0.0000000000	        0.0000000000	     -199.8864558941	      956.0490789599	       22.4648424969	        1.0854361446	        0.0000000000	       -0.0572000383	        0.0000000000	        0.0000000000	        0.0000000000	        0.0000000000	        0.0000000000	        0.0000000000	
        0.7399098318	        0.0047320781	       -0.0036879572	        0.0003459114	        0.0000000000	        0.0000000000	        0.0000000000	     -172.2423888087	      872.5164310004	       19.6252612123	        1.0904505626	        0.0000000000	       -0.0580811443	        0.0000000000	        0.0000000000	        0.0000000000	        0.0000000000	        0.0000000000	        0.0000000000	
        0.7528907060	        0.0463594873	       -0.0307524028	        0.0037855011	        0.0000000000	        0.0000000000	        0.0000000000	     -146.5205214984	      791.0628870803	       17.3743709553	        1.0945328348	        0.0000000000	       -0.0586794599	        0.0000000000	        0.0000000000	        0.0000000000	        0.0000000000	        0.0000000000	        0.0000000000	
        0.7658715803	       -0.4550741367	        0.2683307916	       -0.0363303651	        0.0000000000	        0.0000000000	        0.0000000000	     -127.2134192892	      736.1913327923	       14.9929491314	        1.0984251690	        0.0000000000	       -0.0590714422	        0.0000000000	        0.0000000000	        0.0000000000	        0.0000000000	        0.0000000000	        0.0000000000	
        0.7788524545	       -0.5740220353	        0.3107174079	       -0.0421331799	        0.0000000000	        0.0000000000	        0.0000000000	     -112.9855829349	      708.4620135513	       14.6833929348	        1.1030321909	        0.0000000000	       -0.0594401805	        0.0000000000	        0.0000000000	        0.0000000000	        0.0000000000	        0.0000000000	        0.0000000000	
        0.7918333287	       -0.3462658671	        0.1754626074	       -0.0228198818	        0.0000000000	        0.0000000000	        0.0000000000	     -103.3583642129	      692.5638218891	       14.9062270542	        1.1088524316	        0.0000000000	       -0.0594093224	        0.0000000000	        0.0000000000	        0.0000000000	        0.0000000000	        0.0000000000	        0.0000000000	
        0.8048142030	       -0.2257050487	        0.1092757024	       -0.0122909522	        0.0000000000	        0.0000000000	        0.0000000000	      -93.9631976226	      673.5242724685	       14.8879341313	        1.1145107691	        0.0000000000	       -0.0592025023	        0.0000000000	        0.0000000000	        0.0000000000	        0.0000000000	        0.0000000000	        0.0000000000	
        0.8177950772	       -0.1793579163	        0.0835816716	       -0.0079950872	        0.0000000000	        0.0000000000	        0.0000000000	      -85.1951292628	      652.5392686836	       15.0254049739	        1.1196525873	        0.0000000000	       -0.0589632849	        0.0000000000	        0.0000000000	        0.0000000000	        0.0000000000	        0.0000000000	        0.0000000000	
        0.8307759515	       -0.1762165516	        0.0795309869	       -0.0062962794	        0.0000000000	        0.0000000000	        0.0000000000	      -77.5337001655	      633.7782810331	       15.4103358145	        1.1244812539	        0.0000000000	       -0.0586435493	        0.0000000000	        0.0000000000	        0.0000000000	        0.0000000000	        0.0000000000	        0.0000000000	
        0.8437568257	       -0.2059668709	        0.0904292402	       -0.0058178736	        0.0000000000	        0.0000000000	        0.0000000000	      -70.1483512296	      617.9384461121	       16.0658105532	        1.1289737057	        0.0000000000	       -0.0583210589	        0.0000000000	        0.0000000000	        0.0000000000	        0.0000000000	        0.0000000000	        0.0000000000	
        0.8567377000	       -0.2751415337	        0.1178530712	       -0.0060626362	        0.0000000000	        0.0000000000	        0.0000000000	      -62.9300951413	      604.5881668755	       16.9063372582	        1.1331347490	        0.0000000000	       -0.0580195818	        0.0000000000	        0.0000000000	        0.0000000000	        0.0000000000	        0.0000000000	        0.0000000000	
        0.8697185742	       -0.4033516600	        0.1689101353	       -0.0069373437	        0.0000000000	        0.0000000000	        0.0000000000	      -56.2338383637	      593.2430013350	       17.8102077181	        1.1369709480	        0.0000000000	       -0.0577300413	        0.0000000000	        0.0000000000	        0.0000000000	        0.0000000000	        0.0000000000	        0.0000000000	
        0.8826994484	       -0.6137811142	        0.2519298259	       -0.0082003816	        0.0000000000	        0.0000000000	        0.0000000000	      -50.1410264789	      583.6781151932	       18.6484407049	        1.1404911560	        0.0000000000	       -0.0574466257	        0.0000000000	        0.0000000000	        0.0000000000	        0.0000000000	        0.0000000000	        0.0000000000	
        0.8956803227	       -0.9161102205	        0.3696069209	       -0.0092754221	        0.0000000000	        0.0000000000	        0.0000000000	      -44.5365230409	      575.2082470704	       19.2308917302	        1.1436687238	        0.0000000000	       -0.0571710845	        0.0000000000	        0.0000000000	        0.0000000000	        0.0000000000	        0.0000000000	        0.0000000000	
